<svg width="27" height="27" viewBox="0 0 27 27" fill="none" xmlns="http://www.w3.org/2000/svg">
<path d="M21.0938 16.0302L23.625 18.5614L21.0938 21.0926" stroke="#828282" stroke-width="1.5" stroke-linecap="round" stroke-linejoin="round"/>
<path d="M21.0938 5.90552L23.625 8.43677L21.0938 10.968" stroke="#828282" stroke-width="1.5" stroke-linecap="round" stroke-linejoin="round"/>
<path d="M3.375 18.5634H7.86744C8.56191 18.5633 9.24564 18.3919 9.85794 18.0642C10.4702 17.7365 10.9922 17.2628 11.3774 16.685L13.5 13.5009" stroke="#828282" stroke-width="1.5" stroke-linecap="round" stroke-linejoin="round"/>
<path d="M3.375 8.43469H7.86744C8.56191 8.4347 9.24564 8.60616 9.85794 8.93384C10.4702 9.26151 10.9922 9.73528 11.3774 10.3131L15.6226 16.6813C16.0078 17.2591 16.5298 17.7329 17.1421 18.0605C17.7544 18.3882 18.4381 18.5597 19.1326 18.5597H21.9375" stroke="#828282" stroke-width="1.5" stroke-linecap="round" stroke-linejoin="round"/>
<path d="M21.9375 8.43469H19.1326C18.4381 8.4347 17.7544 8.60616 17.1421 8.93384C16.5298 9.26151 16.0078 9.73528 15.6226 10.3131L15.1875 10.9659" stroke="#828282" stroke-width="1.5" stroke-linecap="round" stroke-linejoin="round"/>
</svg>
