<svg width="24" height="24" viewBox="0 0 24 24" fill="none" xmlns="http://www.w3.org/2000/svg">
<g clip-path="url(#clip0)">
<path d="M12.2607 4.74806C12.1909 4.6813 12.098 4.64404 12.0015 4.64404C11.9049 4.64404 11.812 4.6813 11.7422 4.74806L3.11255 12.992C3.0759 13.027 3.04674 13.0691 3.02684 13.1158C3.00694 13.1624 2.99671 13.2127 2.99677 13.2634L2.99536 21.0006C2.99536 21.3984 3.1534 21.7799 3.4347 22.0612C3.71601 22.3425 4.09754 22.5006 4.49536 22.5006H9.00005C9.19896 22.5006 9.38972 22.4215 9.53037 22.2809C9.67103 22.1402 9.75005 21.9495 9.75005 21.7506V15.3756C9.75005 15.2761 9.78955 15.1807 9.85988 15.1104C9.93021 15.0401 10.0256 15.0006 10.125 15.0006H13.875C13.9745 15.0006 14.0699 15.0401 14.1402 15.1104C14.2105 15.1807 14.25 15.2761 14.25 15.3756V21.7506C14.25 21.9495 14.3291 22.1402 14.4697 22.2809C14.6104 22.4215 14.8011 22.5006 15 22.5006H19.5029C19.9007 22.5006 20.2822 22.3425 20.5635 22.0612C20.8448 21.7799 21.0029 21.3984 21.0029 21.0006V13.2634C21.0029 13.2127 20.9927 13.1624 20.9728 13.1158C20.9529 13.0691 20.9237 13.027 20.8871 12.992L12.2607 4.74806Z" fill="#828282"/>
<path d="M23.0119 11.4459L19.5056 8.0915V3.00134C19.5056 2.80243 19.4266 2.61166 19.286 2.47101C19.1453 2.33036 18.9546 2.25134 18.7556 2.25134H16.5057C16.3067 2.25134 16.116 2.33036 15.9753 2.47101C15.8347 2.61166 15.7557 2.80243 15.7557 3.00134V4.50134L13.0407 1.90541C12.7866 1.64853 12.4088 1.50134 12.0005 1.50134C11.5936 1.50134 11.2167 1.64853 10.9627 1.90587L0.992381 11.4449C0.700819 11.7262 0.664256 12.1888 0.929568 12.4935C0.996192 12.5704 1.07777 12.633 1.16933 12.6774C1.2609 12.7217 1.36053 12.747 1.46218 12.7517C1.56383 12.7563 1.66536 12.7402 1.76059 12.7044C1.85582 12.6686 1.94277 12.6137 2.01613 12.5432L11.7427 3.24884C11.8125 3.18208 11.9053 3.14482 12.0019 3.14482C12.0985 3.14482 12.1913 3.18208 12.2611 3.24884L21.9886 12.5432C22.1319 12.6806 22.3238 12.7556 22.5223 12.7518C22.7208 12.7479 22.9097 12.6655 23.0475 12.5226C23.3353 12.2245 23.3114 11.7323 23.0119 11.4459Z" fill="#828282"/>
</g>
<defs>
<clipPath id="clip0">
<rect width="24" height="24" fill="white"/>
</clipPath>
</defs>
</svg>
