<svg width="35" height="30" viewBox="0 0 35 30" fill="none" xmlns="http://www.w3.org/2000/svg">
<path d="M12.7683 3.1474H22.2319V20.8514H12.7683V3.1474Z" fill="#FF5F00"/>
<path d="M6.36895 29.7625V27.8858C6.36895 27.1663 5.94825 26.6972 5.22716 26.6972C4.86668 26.6972 4.47609 26.8223 4.20566 27.229C3.99545 26.8849 3.69505 26.6972 3.24438 26.6972C2.94384 26.6972 2.64358 26.791 2.40312 27.1351V26.7598H1.77222V29.7625H2.40312V28.1047C2.40312 27.5731 2.67355 27.3227 3.09425 27.3227C3.51467 27.3227 3.72516 27.6043 3.72516 28.1047V29.7625H4.35606V28.1047C4.35606 27.5731 4.65633 27.3227 5.04692 27.3227C5.46761 27.3227 5.67782 27.6043 5.67782 28.1047V29.7625H6.36895ZM15.7123 26.7598H14.6909V25.8527H14.06V26.7598H13.4892V27.3539H14.0599V28.7304C14.0599 29.4186 14.3303 29.8251 15.0514 29.8251C15.3218 29.8251 15.6221 29.7313 15.8326 29.6062L15.6522 29.0431C15.4719 29.1682 15.2617 29.1996 15.1115 29.1996C14.8111 29.1996 14.6909 29.0119 14.6909 28.699V27.3539H15.7123V26.7598ZM21.0601 26.6971C20.6996 26.6971 20.4593 26.8849 20.309 27.1351V26.7598H19.6781V29.7625H20.309V28.0735C20.309 27.5731 20.5192 27.2915 20.9098 27.2915C21.03 27.2915 21.1802 27.3229 21.3004 27.3541L21.4806 26.7286C21.3605 26.6972 21.1802 26.6972 21.0601 26.6972V26.6971ZM12.9784 27.01C12.6779 26.791 12.2573 26.6972 11.8067 26.6972C11.0857 26.6972 10.6051 27.0725 10.6051 27.6668C10.6051 28.1674 10.9655 28.4488 11.5964 28.5427L11.8968 28.574C12.2274 28.6365 12.4076 28.7304 12.4076 28.8868C12.4076 29.1057 12.1673 29.2621 11.7466 29.2621C11.326 29.2621 10.9955 29.1057 10.7852 28.9494L10.4848 29.4498C10.8153 29.7 11.2659 29.8251 11.7165 29.8251C12.5577 29.8251 13.0385 29.4186 13.0385 28.8555C13.0385 28.3237 12.6479 28.0421 12.047 27.9484L11.7466 27.917C11.4762 27.8857 11.2659 27.8233 11.2659 27.6356C11.2659 27.4166 11.4762 27.2915 11.8067 27.2915C12.1673 27.2915 12.5278 27.4478 12.708 27.5417L12.9784 27.01ZM29.7426 26.6972C29.382 26.6972 29.1417 26.8849 28.9914 27.1351V26.7598H28.3605V29.7625H28.9914V28.0735C28.9914 27.5731 29.2018 27.2915 29.5922 27.2915C29.7125 27.2915 29.8628 27.3229 29.983 27.3541L30.1632 26.7286C30.043 26.6972 29.8628 26.6972 29.7426 26.6972ZM21.691 28.2611C21.691 29.1682 22.2918 29.8251 23.2232 29.8251C23.6438 29.8251 23.9442 29.7313 24.2446 29.4811L23.9442 28.9494C23.7039 29.137 23.4635 29.2308 23.1931 29.2308C22.6824 29.2308 22.3219 28.8555 22.3219 28.2611C22.3219 27.6982 22.6824 27.3227 23.1931 27.2915C23.4635 27.2915 23.7039 27.3853 23.9442 27.5731L24.2446 27.0413C23.9442 26.791 23.6438 26.6972 23.2232 26.6972C22.2918 26.6972 21.691 27.3541 21.691 28.2611ZM27.5194 28.2611V26.7598H26.8885V27.1351C26.6782 26.8537 26.3778 26.6972 25.9872 26.6972C25.176 26.6972 24.5451 27.3541 24.5451 28.2611C24.5451 29.1682 25.176 29.8251 25.9872 29.8251C26.4077 29.8251 26.7083 29.6688 26.8885 29.3872V29.7625H27.5194V28.2611ZM25.206 28.2611C25.206 27.7294 25.5365 27.2915 26.0772 27.2915C26.588 27.2915 26.9486 27.6982 26.9486 28.2611C26.9486 28.7929 26.588 29.2308 26.0772 29.2308C25.5365 29.1994 25.206 28.7929 25.206 28.2611ZM17.6652 26.6972C16.824 26.6972 16.223 27.3227 16.223 28.2611C16.223 29.1996 16.8238 29.8251 17.6952 29.8251C18.1157 29.8251 18.5364 29.7 18.8669 29.4186L18.5664 28.9494C18.3261 29.137 18.0257 29.2621 17.7253 29.2621C17.3347 29.2621 16.9441 29.0745 16.8539 28.5426H18.9871V28.2925C19.0172 27.3227 18.4764 26.6972 17.6651 26.6972H17.6652ZM17.6652 27.2602C18.0557 27.2602 18.3262 27.5105 18.3862 27.9797H16.884C16.9441 27.5731 17.2145 27.2602 17.6652 27.2602ZM33.3177 28.2611V25.5712H32.6868V27.1351C32.4765 26.8537 32.1761 26.6972 31.7855 26.6972C30.9744 26.6972 30.3434 27.3541 30.3434 28.2611C30.3434 29.1682 30.9744 29.8251 31.7855 29.8251C32.2062 29.8251 32.5066 29.6688 32.6868 29.3872V29.7625H33.3177V28.2611ZM31.0045 28.2611C31.0045 27.7294 31.3348 27.2915 31.8757 27.2915C32.3864 27.2915 32.7469 27.6982 32.7469 28.2611C32.7469 28.7929 32.3864 29.2308 31.8757 29.2308C31.3348 29.1994 31.0045 28.7929 31.0045 28.2611ZM9.91394 28.2611V26.7598H9.28303V27.1351C9.07268 26.8537 8.77228 26.6972 8.38169 26.6972C7.57055 26.6972 6.93964 27.3541 6.93964 28.2611C6.93964 29.1682 7.57055 29.8251 8.38169 29.8251C8.80239 29.8251 9.10279 29.6688 9.28303 29.3872V29.7625H9.91394V28.2611ZM7.57055 28.2611C7.57055 27.7294 7.90105 27.2915 8.44177 27.2915C8.95252 27.2915 9.31314 27.6982 9.31314 28.2611C9.31314 28.7929 8.95252 29.2308 8.44177 29.2308C7.90105 29.1994 7.57055 28.7929 7.57055 28.2611Z" fill="white"/>
<path d="M13.3689 11.9995C13.3689 8.40242 14.9912 5.21187 17.4847 3.14739C15.6522 1.64602 13.3389 0.738953 10.8153 0.738953C4.83643 0.738953 -0.000488281 5.77484 -0.000488281 11.9995C-0.000488281 18.224 4.83643 23.26 10.8151 23.26C13.3388 23.26 15.652 22.3529 17.4847 20.8514C14.9912 18.8183 13.3689 15.5965 13.3689 11.9995Z" fill="#EB001B"/>
<path d="M34.9998 11.9995C34.9998 18.224 30.1629 23.26 24.1842 23.26C21.6606 23.26 19.3473 22.3529 17.5146 20.8514C20.0383 18.7871 21.6306 15.5965 21.6306 11.9995C21.6306 8.40242 20.0082 5.21187 17.5146 3.14739C19.3472 1.64602 21.6606 0.738953 24.1842 0.738953C30.1629 0.738953 35 5.80618 35 11.9995H34.9998Z" fill="#F79E1B"/>
</svg>
