<svg width="24" height="24" viewBox="0 0 24 24" fill="none" xmlns="http://www.w3.org/2000/svg">
<path d="M12 13.2192C12.6731 13.2192 13.2187 12.6736 13.2187 12.0005C13.2187 11.3274 12.6731 10.7817 12 10.7817C11.3269 10.7817 10.7812 11.3274 10.7812 12.0005C10.7812 12.6736 11.3269 13.2192 12 13.2192Z" fill="#828282"/>
<path d="M16.2187 13.2192C16.8918 13.2192 17.4375 12.6736 17.4375 12.0005C17.4375 11.3274 16.8918 10.7817 16.2187 10.7817C15.5457 10.7817 15 11.3274 15 12.0005C15 12.6736 15.5457 13.2192 16.2187 13.2192Z" fill="#828282"/>
<path d="M7.78125 13.2192C8.45435 13.2192 9 12.6736 9 12.0005C9 11.3274 8.45435 10.7817 7.78125 10.7817C7.10815 10.7817 6.5625 11.3274 6.5625 12.0005C6.5625 12.6736 7.10815 13.2192 7.78125 13.2192Z" fill="#828282"/>
<path d="M21 11.9999C21 7.03113 16.9687 2.99988 12 2.99988C7.03125 2.99988 3 7.03113 3 11.9999C3 16.9686 7.03125 20.9999 12 20.9999C16.9687 20.9999 21 16.9686 21 11.9999Z" stroke="#828282" stroke-width="1.5" stroke-miterlimit="10"/>
</svg>
