<svg width="24" height="24" viewBox="0 0 24 24" fill="none" xmlns="http://www.w3.org/2000/svg">
<path d="M19.5 6.7489H4.5C3.25736 6.7489 2.25 7.75626 2.25 8.9989V17.9989C2.25 19.2415 3.25736 20.2489 4.5 20.2489H19.5C20.7426 20.2489 21.75 19.2415 21.75 17.9989V8.9989C21.75 7.75626 20.7426 6.7489 19.5 6.7489Z" stroke="#828282" stroke-width="1.5" stroke-linejoin="round"/>
<path d="M19.2825 6.74985V5.3436C19.2824 4.9987 19.2061 4.65807 19.0592 4.34603C18.9123 4.03398 18.6983 3.7582 18.4326 3.53837C18.1668 3.31854 17.8558 3.16007 17.5217 3.07428C17.1877 2.98848 16.8388 2.97748 16.5 3.04204L4.155 5.14907C3.6189 5.25124 3.13526 5.53728 2.78749 5.95787C2.43972 6.37846 2.24963 6.90723 2.25 7.45298V9.74985" stroke="#828282" stroke-width="1.5" stroke-linejoin="round"/>
<path d="M17.25 14.9983C16.9533 14.9983 16.6633 14.9103 16.4166 14.7455C16.17 14.5807 15.9777 14.3464 15.8642 14.0723C15.7506 13.7982 15.7209 13.4966 15.7788 13.2057C15.8367 12.9147 15.9796 12.6474 16.1893 12.4376C16.3991 12.2279 16.6664 12.085 16.9574 12.0271C17.2483 11.9692 17.5499 11.9989 17.824 12.1125C18.0981 12.226 18.3324 12.4183 18.4972 12.6649C18.662 12.9116 18.75 13.2016 18.75 13.4983C18.75 13.8961 18.592 14.2776 18.3107 14.559C18.0294 14.8403 17.6478 14.9983 17.25 14.9983Z" fill="#828282"/>
</svg>
